<svg width="39" height="37" viewBox="0 0 39 37" fill="none" xmlns="http://www.w3.org/2000/svg">
<path fill-rule="evenodd" clip-rule="evenodd" d="M8.74716 36.9375C8.41799 36.9048 8.09024 36.8587 7.76472 36.7994C7.52564 36.756 7.30207 36.6496 7.11652 36.4909C6.93097 36.3322 6.78998 36.1268 6.70776 35.8954C6.62553 35.6639 6.60497 35.4147 6.64815 35.1726C6.69133 34.9306 6.79672 34.7043 6.9537 34.5167C7.7099 33.6139 8.22629 32.5308 8.45409 31.3697C8.49648 31.1551 8.41354 30.778 7.98591 30.3562C4.94459 27.3604 3.05713 23.297 3.05713 18.7987C3.05713 9.41009 11.2189 2 21.0286 2C30.8382 2 39 9.41009 39 18.7987C39 28.1873 30.8382 35.5974 21.0286 35.5974C19.4932 35.5974 18.0001 35.4163 16.5735 35.0766C14.2415 36.5607 11.4877 37.2155 8.74716 36.9375Z" fill="#AAB2FF"/>
<path d="M18.3235 32.6087C27.3377 32.6087 34.6471 25.7561 34.6471 17.3043C34.6471 8.85264 27.3377 2 18.3235 2C9.30931 2 2 8.85264 2 17.3043C2 21.2074 3.55799 24.7673 6.1226 27.4701C6.90613 28.2994 7.46476 29.3994 7.18544 30.5143C6.87959 31.7334 6.30719 32.8656 5.51137 33.8256C6.14825 33.9426 6.79411 34.001 7.44118 34C9.76637 34 11.9211 33.2543 13.6895 31.9835C15.1586 32.3916 16.7148 32.6087 18.3235 32.6087Z" stroke="#4F46E5" stroke-width="3" stroke-linecap="round" stroke-linejoin="round"/>
<path d="M20.3219 9.12109C20.7516 9.72266 21.1891 10.5 21.6344 11.4531C22.0875 12.3984 22.525 13.4375 22.9469 14.5703C23.3688 15.7031 23.7477 16.8633 24.0836 18.0508C24.4274 19.2305 24.7086 20.3672 24.9274 21.4609C25.1461 22.5547 25.2711 23.5273 25.3024 24.3789C25.3102 24.793 25.1227 25 24.7399 25H21.9039C21.5367 25 21.3453 24.8164 21.3297 24.4492C21.2985 23.5742 21.1578 22.5117 20.9078 21.2617H14.5094C14.2906 22.4805 14.1656 23.543 14.1344 24.4492C14.1188 24.8164 13.9196 25 13.5367 25H10.7594C10.6188 25 10.5016 24.9609 10.4078 24.8828C10.3141 24.7969 10.2711 24.6523 10.2789 24.4492C10.318 23.582 10.443 22.5977 10.6539 21.4961C10.8727 20.3867 11.1539 19.2383 11.4977 18.0508C11.8414 16.8633 12.2242 15.7031 12.6461 14.5703C13.068 13.4297 13.5055 12.3867 13.9586 11.4414C14.4117 10.4961 14.8531 9.72266 15.2828 9.12109C15.5094 8.80078 15.7477 8.56641 15.9977 8.41797C16.2555 8.26953 16.5719 8.19531 16.9469 8.19531H18.6344C19.0172 8.19531 19.3375 8.26953 19.5953 8.41797C19.8531 8.56641 20.0953 8.80078 20.3219 9.12109ZM17.6735 11.8984C17.1578 12.7188 16.6852 13.6992 16.2555 14.8398C15.8258 15.9805 15.4547 17.1523 15.1422 18.3555H20.2281C19.9 17.1523 19.5211 15.9805 19.0914 14.8398C18.6617 13.6992 18.2125 12.7188 17.7438 11.8984H17.6735Z" fill="#4F46E5"/>
</svg>
